<?xml version="1.0" encoding="iso-8859-1"?>
<!-- Generator: Adobe Illustrator 19.0.0, SVG Export Plug-In . SVG Version: 6.00 Build 0)  -->
<svg version="1.1" id="Capa_1" xmlns="http://www.w3.org/2000/svg" xmlns:xlink="http://www.w3.org/1999/xlink" x="0px" y="0px"
	 viewBox="0 0 252.164 252.164" style="enable-background:new 0 0 252.164 252.164;" xml:space="preserve">
<g>
	<polygon points="95.416,64.257 56.369,64.257 35.477,106.128 116.31,106.128 	"/>
	<polygon points="95.212,52.257 95.258,22.923 56.528,22.923 56.574,52.257 	"/>
	<polygon points="195.795,64.257 156.748,64.257 135.855,106.128 216.688,106.128 	"/>
	<polygon points="195.591,52.257 195.637,22.923 156.907,22.923 156.952,52.257 	"/>
	<path d="M235.532,188.586v-67.82h-218.9v67.82H0v40.655h252.164v-40.655H235.532z M78.674,175.076H35.362v-28.094h43.312V175.076z
		 M147.738,175.076h-43.312v-28.094h43.312V175.076z M216.802,175.076h-43.312v-28.094h43.312V175.076z"/>
</g>
<g>
</g>
<g>
</g>
<g>
</g>
<g>
</g>
<g>
</g>
<g>
</g>
<g>
</g>
<g>
</g>
<g>
</g>
<g>
</g>
<g>
</g>
<g>
</g>
<g>
</g>
<g>
</g>
<g>
</g>
</svg>
